<mxfile host="app.diagrams.net" agent="Mozilla/5.0 (Windows NT 10.0; Win64; x64) AppleWebKit/537.36 (KHTML, like Gecko) Chrome/138.0.0.0 Safari/537.36" version="28.0.4">
  <diagram name="Page-1" id="ff44883e-f642-bcb2-894b-16b3d25a3f0b">
    <mxGraphModel grid="1" page="1" gridSize="10" guides="1" tooltips="1" connect="1" arrows="1" fold="1" pageScale="1.5" pageWidth="1169" pageHeight="826" background="none" math="0" shadow="0">
      <root>
        <mxCell id="0" style=";html=1;" />
        <mxCell id="1" style=";html=1;" parent="0" />
        <mxCell id="zzdUzjvPum1pIaP3uu2M-7" style="rounded=0;orthogonalLoop=1;jettySize=auto;html=1;exitX=1;exitY=0.5;exitDx=0;exitDy=0;entryX=0;entryY=0.5;entryDx=0;entryDy=0;" edge="1" parent="1" source="zzdUzjvPum1pIaP3uu2M-1" target="zzdUzjvPum1pIaP3uu2M-67">
          <mxGeometry relative="1" as="geometry">
            <mxPoint x="2279.9999999999745" y="-1160" as="targetPoint" />
          </mxGeometry>
        </mxCell>
        <mxCell id="zzdUzjvPum1pIaP3uu2M-8" value="desea registrarse" style="edgeLabel;html=1;align=center;verticalAlign=middle;resizable=0;points=[];" connectable="0" vertex="1" parent="zzdUzjvPum1pIaP3uu2M-7">
          <mxGeometry x="0.0514" y="-1" relative="1" as="geometry">
            <mxPoint as="offset" />
          </mxGeometry>
        </mxCell>
        <mxCell id="zzdUzjvPum1pIaP3uu2M-1" value="RF - 1" style="ellipse;whiteSpace=wrap;html=1;aspect=fixed;" vertex="1" parent="1">
          <mxGeometry x="1920" y="-1600" width="80" height="80" as="geometry" />
        </mxCell>
        <mxCell id="zzdUzjvPum1pIaP3uu2M-11" style="rounded=0;orthogonalLoop=1;jettySize=auto;html=1;exitX=1;exitY=0.5;exitDx=0;exitDy=0;entryX=0;entryY=0.5;entryDx=0;entryDy=0;" edge="1" parent="1" source="zzdUzjvPum1pIaP3uu2M-3" target="zzdUzjvPum1pIaP3uu2M-10">
          <mxGeometry relative="1" as="geometry" />
        </mxCell>
        <mxCell id="zzdUzjvPum1pIaP3uu2M-12" value="tiene permisos de admin" style="edgeLabel;html=1;align=center;verticalAlign=middle;resizable=0;points=[];" connectable="0" vertex="1" parent="zzdUzjvPum1pIaP3uu2M-11">
          <mxGeometry x="-0.0552" relative="1" as="geometry">
            <mxPoint as="offset" />
          </mxGeometry>
        </mxCell>
        <mxCell id="zzdUzjvPum1pIaP3uu2M-14" style="rounded=0;orthogonalLoop=1;jettySize=auto;html=1;exitX=1;exitY=0.5;exitDx=0;exitDy=0;entryX=0;entryY=0.5;entryDx=0;entryDy=0;" edge="1" parent="1" source="zzdUzjvPum1pIaP3uu2M-3" target="zzdUzjvPum1pIaP3uu2M-13">
          <mxGeometry relative="1" as="geometry" />
        </mxCell>
        <mxCell id="zzdUzjvPum1pIaP3uu2M-15" value="tiene permisos de usr" style="edgeLabel;html=1;align=center;verticalAlign=middle;resizable=0;points=[];" connectable="0" vertex="1" parent="zzdUzjvPum1pIaP3uu2M-14">
          <mxGeometry x="0.1823" relative="1" as="geometry">
            <mxPoint as="offset" />
          </mxGeometry>
        </mxCell>
        <mxCell id="zzdUzjvPum1pIaP3uu2M-3" value="RF - 2, 4" style="ellipse;whiteSpace=wrap;html=1;aspect=fixed;" vertex="1" parent="1">
          <mxGeometry x="2280" y="-1600" width="80" height="80" as="geometry" />
        </mxCell>
        <mxCell id="zzdUzjvPum1pIaP3uu2M-4" style="rounded=0;orthogonalLoop=1;jettySize=auto;html=1;exitX=1;exitY=0.5;exitDx=0;exitDy=0;" edge="1" parent="1" source="zzdUzjvPum1pIaP3uu2M-1">
          <mxGeometry relative="1" as="geometry">
            <mxPoint x="2278" y="-1560" as="targetPoint" />
          </mxGeometry>
        </mxCell>
        <mxCell id="zzdUzjvPum1pIaP3uu2M-6" value="esta registrado" style="edgeLabel;html=1;align=center;verticalAlign=middle;resizable=0;points=[];" connectable="0" vertex="1" parent="zzdUzjvPum1pIaP3uu2M-4">
          <mxGeometry x="-0.0143" relative="1" as="geometry">
            <mxPoint as="offset" />
          </mxGeometry>
        </mxCell>
        <mxCell id="zzdUzjvPum1pIaP3uu2M-23" style="rounded=0;orthogonalLoop=1;jettySize=auto;html=1;exitX=1;exitY=0;exitDx=0;exitDy=0;entryX=0;entryY=0.5;entryDx=0;entryDy=0;" edge="1" parent="1" source="zzdUzjvPum1pIaP3uu2M-10" target="zzdUzjvPum1pIaP3uu2M-37">
          <mxGeometry relative="1" as="geometry">
            <mxPoint x="2860.000000000052" y="-2420" as="targetPoint" />
          </mxGeometry>
        </mxCell>
        <mxCell id="zzdUzjvPum1pIaP3uu2M-24" value="Alta admin" style="edgeLabel;html=1;align=center;verticalAlign=middle;resizable=0;points=[];" connectable="0" vertex="1" parent="zzdUzjvPum1pIaP3uu2M-23">
          <mxGeometry x="-0.0084" y="-1" relative="1" as="geometry">
            <mxPoint as="offset" />
          </mxGeometry>
        </mxCell>
        <mxCell id="zzdUzjvPum1pIaP3uu2M-26" style="rounded=0;orthogonalLoop=1;jettySize=auto;html=1;exitX=1;exitY=0.5;exitDx=0;exitDy=0;entryX=0;entryY=0.5;entryDx=0;entryDy=0;" edge="1" parent="1" source="zzdUzjvPum1pIaP3uu2M-10">
          <mxGeometry relative="1" as="geometry">
            <mxPoint x="2860.000000000052" y="-2230" as="targetPoint" />
          </mxGeometry>
        </mxCell>
        <mxCell id="zzdUzjvPum1pIaP3uu2M-27" value="Baja usr" style="edgeLabel;html=1;align=center;verticalAlign=middle;resizable=0;points=[];" connectable="0" vertex="1" parent="zzdUzjvPum1pIaP3uu2M-26">
          <mxGeometry x="0.0679" y="-2" relative="1" as="geometry">
            <mxPoint as="offset" />
          </mxGeometry>
        </mxCell>
        <mxCell id="zzdUzjvPum1pIaP3uu2M-29" style="rounded=0;orthogonalLoop=1;jettySize=auto;html=1;exitX=1;exitY=1;exitDx=0;exitDy=0;entryX=0;entryY=0.5;entryDx=0;entryDy=0;" edge="1" parent="1" source="zzdUzjvPum1pIaP3uu2M-10" target="zzdUzjvPum1pIaP3uu2M-28">
          <mxGeometry relative="1" as="geometry" />
        </mxCell>
        <mxCell id="zzdUzjvPum1pIaP3uu2M-30" value="Modificar usr" style="edgeLabel;html=1;align=center;verticalAlign=middle;resizable=0;points=[];" connectable="0" vertex="1" parent="zzdUzjvPum1pIaP3uu2M-29">
          <mxGeometry x="0.0017" y="-2" relative="1" as="geometry">
            <mxPoint as="offset" />
          </mxGeometry>
        </mxCell>
        <mxCell id="zzdUzjvPum1pIaP3uu2M-10" value="RF - 3" style="ellipse;whiteSpace=wrap;html=1;aspect=fixed;" vertex="1" parent="1">
          <mxGeometry x="2600" y="-2020" width="80" height="80" as="geometry" />
        </mxCell>
        <mxCell id="zzdUzjvPum1pIaP3uu2M-17" style="rounded=0;orthogonalLoop=1;jettySize=auto;html=1;exitX=1;exitY=0.5;exitDx=0;exitDy=0;entryX=0;entryY=0.5;entryDx=0;entryDy=0;" edge="1" parent="1" source="zzdUzjvPum1pIaP3uu2M-13" target="zzdUzjvPum1pIaP3uu2M-16">
          <mxGeometry relative="1" as="geometry" />
        </mxCell>
        <mxCell id="zzdUzjvPum1pIaP3uu2M-18" value="Patida juego digital&amp;nbsp;" style="edgeLabel;html=1;align=center;verticalAlign=middle;resizable=0;points=[];" connectable="0" vertex="1" parent="zzdUzjvPum1pIaP3uu2M-17">
          <mxGeometry x="0.0197" y="-2" relative="1" as="geometry">
            <mxPoint x="-1" as="offset" />
          </mxGeometry>
        </mxCell>
        <mxCell id="zzdUzjvPum1pIaP3uu2M-20" style="rounded=0;orthogonalLoop=1;jettySize=auto;html=1;exitX=1;exitY=0.5;exitDx=0;exitDy=0;entryX=0;entryY=0.5;entryDx=0;entryDy=0;" edge="1" parent="1" source="zzdUzjvPum1pIaP3uu2M-13" target="zzdUzjvPum1pIaP3uu2M-19">
          <mxGeometry relative="1" as="geometry" />
        </mxCell>
        <mxCell id="zzdUzjvPum1pIaP3uu2M-21" value="Partida seguimiento&amp;nbsp;" style="edgeLabel;html=1;align=center;verticalAlign=middle;resizable=0;points=[];" connectable="0" vertex="1" parent="zzdUzjvPum1pIaP3uu2M-20">
          <mxGeometry x="0.0394" y="-1" relative="1" as="geometry">
            <mxPoint as="offset" />
          </mxGeometry>
        </mxCell>
        <mxCell id="zzdUzjvPum1pIaP3uu2M-13" value="RF - 5" style="ellipse;whiteSpace=wrap;html=1;aspect=fixed;" vertex="1" parent="1">
          <mxGeometry x="2600" y="-1600" width="80" height="80" as="geometry" />
        </mxCell>
        <mxCell id="8pfgaCcAm6i4V-2ESHth-6" style="rounded=0;orthogonalLoop=1;jettySize=auto;html=1;exitX=1;exitY=0.5;exitDx=0;exitDy=0;entryX=0;entryY=0.5;entryDx=0;entryDy=0;" edge="1" parent="1" source="zzdUzjvPum1pIaP3uu2M-16" target="8pfgaCcAm6i4V-2ESHth-5">
          <mxGeometry relative="1" as="geometry" />
        </mxCell>
        <mxCell id="8pfgaCcAm6i4V-2ESHth-7" value="3 Jugadores" style="edgeLabel;html=1;align=center;verticalAlign=middle;resizable=0;points=[];" connectable="0" vertex="1" parent="8pfgaCcAm6i4V-2ESHth-6">
          <mxGeometry x="-0.0187" y="-3" relative="1" as="geometry">
            <mxPoint as="offset" />
          </mxGeometry>
        </mxCell>
        <mxCell id="8pfgaCcAm6i4V-2ESHth-9" style="rounded=0;orthogonalLoop=1;jettySize=auto;html=1;exitX=1;exitY=0.5;exitDx=0;exitDy=0;entryX=0;entryY=0.5;entryDx=0;entryDy=0;" edge="1" parent="1" source="zzdUzjvPum1pIaP3uu2M-16" target="8pfgaCcAm6i4V-2ESHth-8">
          <mxGeometry relative="1" as="geometry" />
        </mxCell>
        <mxCell id="8pfgaCcAm6i4V-2ESHth-10" value="2 o 4 Jugadores" style="edgeLabel;html=1;align=center;verticalAlign=middle;resizable=0;points=[];" connectable="0" vertex="1" parent="8pfgaCcAm6i4V-2ESHth-9">
          <mxGeometry x="-0.02" y="2" relative="1" as="geometry">
            <mxPoint as="offset" />
          </mxGeometry>
        </mxCell>
        <mxCell id="8pfgaCcAm6i4V-2ESHth-12" style="rounded=0;orthogonalLoop=1;jettySize=auto;html=1;exitX=1;exitY=0.5;exitDx=0;exitDy=0;entryX=0;entryY=0.5;entryDx=0;entryDy=0;" edge="1" parent="1" source="zzdUzjvPum1pIaP3uu2M-16" target="8pfgaCcAm6i4V-2ESHth-11">
          <mxGeometry relative="1" as="geometry" />
        </mxCell>
        <mxCell id="8pfgaCcAm6i4V-2ESHth-13" value="5 jugadores" style="edgeLabel;html=1;align=center;verticalAlign=middle;resizable=0;points=[];" connectable="0" vertex="1" parent="8pfgaCcAm6i4V-2ESHth-12">
          <mxGeometry x="0.001" y="-1" relative="1" as="geometry">
            <mxPoint as="offset" />
          </mxGeometry>
        </mxCell>
        <mxCell id="zzdUzjvPum1pIaP3uu2M-16" value="RF - 15" style="ellipse;whiteSpace=wrap;html=1;aspect=fixed;" vertex="1" parent="1">
          <mxGeometry x="2960" y="-1080" width="80" height="80" as="geometry" />
        </mxCell>
        <mxCell id="22xwDiC0nkHf0hDfVOVU-51" value="" style="edgeStyle=orthogonalEdgeStyle;rounded=0;orthogonalLoop=1;jettySize=auto;html=1;entryX=0;entryY=0.5;entryDx=0;entryDy=0;" edge="1" parent="1" source="zzdUzjvPum1pIaP3uu2M-19" target="22xwDiC0nkHf0hDfVOVU-115">
          <mxGeometry relative="1" as="geometry">
            <mxPoint x="3530" y="-1720" as="targetPoint" />
          </mxGeometry>
        </mxCell>
        <mxCell id="22xwDiC0nkHf0hDfVOVU-52" value="Comieza la partida" style="edgeLabel;html=1;align=center;verticalAlign=middle;resizable=0;points=[];" connectable="0" vertex="1" parent="22xwDiC0nkHf0hDfVOVU-51">
          <mxGeometry x="-0.1179" y="6" relative="1" as="geometry">
            <mxPoint as="offset" />
          </mxGeometry>
        </mxCell>
        <mxCell id="zzdUzjvPum1pIaP3uu2M-19" value="RF - 6" style="ellipse;whiteSpace=wrap;html=1;aspect=fixed;" vertex="1" parent="1">
          <mxGeometry x="3200" y="-1760" width="80" height="80" as="geometry" />
        </mxCell>
        <mxCell id="zzdUzjvPum1pIaP3uu2M-43" style="rounded=0;orthogonalLoop=1;jettySize=auto;html=1;exitX=1;exitY=0.5;exitDx=0;exitDy=0;entryX=0;entryY=0.5;entryDx=0;entryDy=0;" edge="1" parent="1" source="zzdUzjvPum1pIaP3uu2M-28">
          <mxGeometry relative="1" as="geometry">
            <mxPoint x="3077.0000000000246" y="-2120" as="targetPoint" />
          </mxGeometry>
        </mxCell>
        <mxCell id="zzdUzjvPum1pIaP3uu2M-44" value="Modificar credenciales" style="edgeLabel;html=1;align=center;verticalAlign=middle;resizable=0;points=[];" connectable="0" vertex="1" parent="zzdUzjvPum1pIaP3uu2M-43">
          <mxGeometry x="0.0291" y="-2" relative="1" as="geometry">
            <mxPoint as="offset" />
          </mxGeometry>
        </mxCell>
        <mxCell id="zzdUzjvPum1pIaP3uu2M-45" style="rounded=0;orthogonalLoop=1;jettySize=auto;html=1;exitX=1;exitY=0.5;exitDx=0;exitDy=0;entryX=0;entryY=0.5;entryDx=0;entryDy=0;" edge="1" parent="1" source="zzdUzjvPum1pIaP3uu2M-28">
          <mxGeometry relative="1" as="geometry">
            <mxPoint x="3080.0000000000246" y="-1960" as="targetPoint" />
          </mxGeometry>
        </mxCell>
        <mxCell id="zzdUzjvPum1pIaP3uu2M-46" value="Modificar permisos" style="edgeLabel;html=1;align=center;verticalAlign=middle;resizable=0;points=[];" connectable="0" vertex="1" parent="zzdUzjvPum1pIaP3uu2M-45">
          <mxGeometry x="0.0433" y="-3" relative="1" as="geometry">
            <mxPoint as="offset" />
          </mxGeometry>
        </mxCell>
        <mxCell id="zzdUzjvPum1pIaP3uu2M-28" value="" style="ellipse;whiteSpace=wrap;html=1;aspect=fixed;" vertex="1" parent="1">
          <mxGeometry x="2860" y="-2090" width="80" height="80" as="geometry" />
        </mxCell>
        <mxCell id="zzdUzjvPum1pIaP3uu2M-35" style="edgeStyle=orthogonalEdgeStyle;rounded=0;orthogonalLoop=1;jettySize=auto;html=1;exitX=1;exitY=0.5;exitDx=0;exitDy=0;" edge="1" parent="1" source="zzdUzjvPum1pIaP3uu2M-33">
          <mxGeometry relative="1" as="geometry">
            <mxPoint x="3120" y="-2230.0526315789475" as="targetPoint" />
            <Array as="points">
              <mxPoint x="3020" y="-2230" />
              <mxPoint x="3020" y="-2230" />
            </Array>
          </mxGeometry>
        </mxCell>
        <mxCell id="zzdUzjvPum1pIaP3uu2M-36" value="Usr dado de baja" style="edgeLabel;html=1;align=center;verticalAlign=middle;resizable=0;points=[];" connectable="0" vertex="1" parent="zzdUzjvPum1pIaP3uu2M-35">
          <mxGeometry x="-0.017" y="-2" relative="1" as="geometry">
            <mxPoint as="offset" />
          </mxGeometry>
        </mxCell>
        <mxCell id="zzdUzjvPum1pIaP3uu2M-33" value="" style="whiteSpace=wrap;html=1;aspect=fixed;" vertex="1" parent="1">
          <mxGeometry x="2860" y="-2280" width="80" height="80" as="geometry" />
        </mxCell>
        <mxCell id="zzdUzjvPum1pIaP3uu2M-39" style="edgeStyle=orthogonalEdgeStyle;rounded=0;orthogonalLoop=1;jettySize=auto;html=1;exitX=1;exitY=0.5;exitDx=0;exitDy=0;" edge="1" parent="1" source="zzdUzjvPum1pIaP3uu2M-37">
          <mxGeometry relative="1" as="geometry">
            <mxPoint x="3110" y="-2410.0526315789475" as="targetPoint" />
          </mxGeometry>
        </mxCell>
        <mxCell id="zzdUzjvPum1pIaP3uu2M-40" value="Usr creado" style="edgeLabel;html=1;align=center;verticalAlign=middle;resizable=0;points=[];" connectable="0" vertex="1" parent="zzdUzjvPum1pIaP3uu2M-39">
          <mxGeometry x="-0.097" y="1" relative="1" as="geometry">
            <mxPoint as="offset" />
          </mxGeometry>
        </mxCell>
        <mxCell id="zzdUzjvPum1pIaP3uu2M-37" value="" style="whiteSpace=wrap;html=1;aspect=fixed;" vertex="1" parent="1">
          <mxGeometry x="2860" y="-2450" width="80" height="80" as="geometry" />
        </mxCell>
        <mxCell id="zzdUzjvPum1pIaP3uu2M-48" style="edgeStyle=orthogonalEdgeStyle;rounded=0;orthogonalLoop=1;jettySize=auto;html=1;exitX=1;exitY=0.5;exitDx=0;exitDy=0;" edge="1" parent="1">
          <mxGeometry relative="1" as="geometry">
            <mxPoint x="3156.9999999999745" y="-2120" as="sourcePoint" />
            <mxPoint x="3350" y="-2120" as="targetPoint" />
          </mxGeometry>
        </mxCell>
        <mxCell id="zzdUzjvPum1pIaP3uu2M-50" value="c" style="edgeLabel;html=1;align=center;verticalAlign=middle;resizable=0;points=[];" connectable="0" vertex="1" parent="zzdUzjvPum1pIaP3uu2M-48">
          <mxGeometry x="0.0628" relative="1" as="geometry">
            <mxPoint as="offset" />
          </mxGeometry>
        </mxCell>
        <mxCell id="zzdUzjvPum1pIaP3uu2M-51" value="Crendeciales modicados" style="edgeLabel;html=1;align=center;verticalAlign=middle;resizable=0;points=[];" connectable="0" vertex="1" parent="zzdUzjvPum1pIaP3uu2M-48">
          <mxGeometry x="0.0628" y="-2" relative="1" as="geometry">
            <mxPoint as="offset" />
          </mxGeometry>
        </mxCell>
        <mxCell id="zzdUzjvPum1pIaP3uu2M-54" style="edgeStyle=orthogonalEdgeStyle;rounded=0;orthogonalLoop=1;jettySize=auto;html=1;" edge="1" parent="1" source="zzdUzjvPum1pIaP3uu2M-47">
          <mxGeometry relative="1" as="geometry">
            <mxPoint x="3360" y="-1960" as="targetPoint" />
          </mxGeometry>
        </mxCell>
        <mxCell id="zzdUzjvPum1pIaP3uu2M-55" value="Permisos modificados" style="edgeLabel;html=1;align=center;verticalAlign=middle;resizable=0;points=[];" connectable="0" vertex="1" parent="zzdUzjvPum1pIaP3uu2M-54">
          <mxGeometry x="-0.0113" y="3" relative="1" as="geometry">
            <mxPoint as="offset" />
          </mxGeometry>
        </mxCell>
        <mxCell id="zzdUzjvPum1pIaP3uu2M-47" value="" style="whiteSpace=wrap;html=1;aspect=fixed;" vertex="1" parent="1">
          <mxGeometry x="3080" y="-2000" width="80" height="80" as="geometry" />
        </mxCell>
        <mxCell id="zzdUzjvPum1pIaP3uu2M-52" value="" style="whiteSpace=wrap;html=1;aspect=fixed;" vertex="1" parent="1">
          <mxGeometry x="3077.39" y="-2160" width="80" height="80" as="geometry" />
        </mxCell>
        <mxCell id="zzdUzjvPum1pIaP3uu2M-68" style="edgeStyle=orthogonalEdgeStyle;rounded=0;orthogonalLoop=1;jettySize=auto;html=1;" edge="1" parent="1" source="zzdUzjvPum1pIaP3uu2M-67">
          <mxGeometry relative="1" as="geometry">
            <mxPoint x="2380" y="-1830" as="targetPoint" />
          </mxGeometry>
        </mxCell>
        <mxCell id="zzdUzjvPum1pIaP3uu2M-69" value="se registro" style="edgeLabel;html=1;align=center;verticalAlign=middle;resizable=0;points=[];" connectable="0" vertex="1" parent="zzdUzjvPum1pIaP3uu2M-68">
          <mxGeometry x="0.1514" y="1" relative="1" as="geometry">
            <mxPoint x="-25" y="1" as="offset" />
          </mxGeometry>
        </mxCell>
        <mxCell id="zzdUzjvPum1pIaP3uu2M-67" value="RF - 1" style="whiteSpace=wrap;html=1;aspect=fixed;" vertex="1" parent="1">
          <mxGeometry x="2100" y="-1870" width="80" height="80" as="geometry" />
        </mxCell>
        <mxCell id="22xwDiC0nkHf0hDfVOVU-4" style="edgeStyle=orthogonalEdgeStyle;rounded=0;orthogonalLoop=1;jettySize=auto;html=1;entryX=0;entryY=0.5;entryDx=0;entryDy=0;" edge="1" parent="1" source="8pfgaCcAm6i4V-2ESHth-5" target="22xwDiC0nkHf0hDfVOVU-3">
          <mxGeometry relative="1" as="geometry" />
        </mxCell>
        <mxCell id="22xwDiC0nkHf0hDfVOVU-8" value="Comienza la partida" style="edgeLabel;html=1;align=center;verticalAlign=middle;resizable=0;points=[];" connectable="0" vertex="1" parent="22xwDiC0nkHf0hDfVOVU-4">
          <mxGeometry x="-0.0633" y="2" relative="1" as="geometry">
            <mxPoint as="offset" />
          </mxGeometry>
        </mxCell>
        <mxCell id="8pfgaCcAm6i4V-2ESHth-5" value="RF - 16, 17, 18, 19" style="ellipse;whiteSpace=wrap;html=1;aspect=fixed;" vertex="1" parent="1">
          <mxGeometry x="3200" y="-1080" width="80" height="80" as="geometry" />
        </mxCell>
        <mxCell id="22xwDiC0nkHf0hDfVOVU-2" style="rounded=0;orthogonalLoop=1;jettySize=auto;html=1;entryX=0;entryY=0.5;entryDx=0;entryDy=0;" edge="1" parent="1" source="8pfgaCcAm6i4V-2ESHth-8" target="22xwDiC0nkHf0hDfVOVU-1">
          <mxGeometry relative="1" as="geometry">
            <Array as="points" />
          </mxGeometry>
        </mxCell>
        <mxCell id="22xwDiC0nkHf0hDfVOVU-7" value="Comieza la partida" style="edgeLabel;html=1;align=center;verticalAlign=middle;resizable=0;points=[];" connectable="0" vertex="1" parent="22xwDiC0nkHf0hDfVOVU-2">
          <mxGeometry x="-0.2367" relative="1" as="geometry">
            <mxPoint as="offset" />
          </mxGeometry>
        </mxCell>
        <mxCell id="8pfgaCcAm6i4V-2ESHth-8" value="RF - 16, 17, 18, 19" style="ellipse;whiteSpace=wrap;html=1;aspect=fixed;" vertex="1" parent="1">
          <mxGeometry x="3200" y="-1440" width="80" height="80" as="geometry" />
        </mxCell>
        <mxCell id="8pfgaCcAm6i4V-2ESHth-11" value="RF - 16, 17, 18, 19" style="ellipse;whiteSpace=wrap;html=1;aspect=fixed;" vertex="1" parent="1">
          <mxGeometry x="3200" y="-720" width="80" height="80" as="geometry" />
        </mxCell>
        <mxCell id="22xwDiC0nkHf0hDfVOVU-1" value="&lt;span style=&quot;font-size: 11px; text-wrap-mode: nowrap; background-color: rgb(255, 255, 255);&quot;&gt;-8 dinosaurios de cada especie&lt;/span&gt;&lt;br style=&quot;font-size: 11px; text-wrap-mode: nowrap;&quot;&gt;&lt;span style=&quot;font-size: 11px; text-wrap-mode: nowrap; background-color: rgb(255, 255, 255);&quot;&gt;- se asigna un tablero por jugador&lt;/span&gt;&lt;br style=&quot;font-size: 11px; text-wrap-mode: nowrap;&quot;&gt;&lt;span style=&quot;font-size: 11px; text-wrap-mode: nowrap; background-color: rgb(255, 255, 255);&quot;&gt;-Se asignan 6 dinosaurios al azar&lt;br&gt;&amp;nbsp;por jugador&lt;/span&gt;" style="whiteSpace=wrap;html=1;aspect=fixed;" vertex="1" parent="1">
          <mxGeometry x="3559" y="-1499.5" width="199" height="199" as="geometry" />
        </mxCell>
        <mxCell id="22xwDiC0nkHf0hDfVOVU-3" value="&lt;span style=&quot;font-size: 11px; text-wrap-mode: nowrap; background-color: rgb(255, 255, 255);&quot;&gt;-6 dinosaurios de cada especie&lt;/span&gt;&lt;br style=&quot;font-size: 11px; text-wrap-mode: nowrap;&quot;&gt;&lt;span style=&quot;font-size: 11px; text-wrap-mode: nowrap; background-color: rgb(255, 255, 255);&quot;&gt;- se asigna un tablero por jugador&lt;/span&gt;&lt;br style=&quot;font-size: 11px; text-wrap-mode: nowrap;&quot;&gt;&lt;span style=&quot;font-size: 11px; text-wrap-mode: nowrap; background-color: rgb(255, 255, 255);&quot;&gt;-Se asignan 6 dinosaurios al azar&lt;br&gt;&amp;nbsp;por jugador&lt;/span&gt;" style="whiteSpace=wrap;html=1;aspect=fixed;" vertex="1" parent="1">
          <mxGeometry x="3559" y="-1140" width="200" height="200" as="geometry" />
        </mxCell>
        <mxCell id="22xwDiC0nkHf0hDfVOVU-11" style="rounded=0;orthogonalLoop=1;jettySize=auto;html=1;exitX=1;exitY=0.5;exitDx=0;exitDy=0;" edge="1" parent="1" source="22xwDiC0nkHf0hDfVOVU-5">
          <mxGeometry relative="1" as="geometry">
            <mxPoint x="4060" y="-680" as="targetPoint" />
          </mxGeometry>
        </mxCell>
        <mxCell id="22xwDiC0nkHf0hDfVOVU-108" value="Juego" style="edgeLabel;html=1;align=center;verticalAlign=middle;resizable=0;points=[];" connectable="0" vertex="1" parent="22xwDiC0nkHf0hDfVOVU-11">
          <mxGeometry x="-0.2902" y="4" relative="1" as="geometry">
            <mxPoint x="1" as="offset" />
          </mxGeometry>
        </mxCell>
        <mxCell id="22xwDiC0nkHf0hDfVOVU-5" value="&lt;span style=&quot;font-size: 11px; text-wrap-mode: nowrap; background-color: rgb(255, 255, 255);&quot;&gt;-10 dinosaurios de cada especie&lt;/span&gt;&lt;br style=&quot;font-size: 11px; text-wrap-mode: nowrap;&quot;&gt;&lt;span style=&quot;font-size: 11px; text-wrap-mode: nowrap; background-color: rgb(255, 255, 255);&quot;&gt;- se asigna un tablero por jugador&lt;/span&gt;&lt;br style=&quot;font-size: 11px; text-wrap-mode: nowrap;&quot;&gt;&lt;span style=&quot;font-size: 11px; text-wrap-mode: nowrap; background-color: rgb(255, 255, 255);&quot;&gt;-Se asignan 6 dinosaurios al azar&lt;br&gt;&amp;nbsp;por jugador&lt;/span&gt;" style="whiteSpace=wrap;html=1;aspect=fixed;" vertex="1" parent="1">
          <mxGeometry x="3559" y="-780" width="200" height="200" as="geometry" />
        </mxCell>
        <mxCell id="22xwDiC0nkHf0hDfVOVU-6" style="edgeStyle=orthogonalEdgeStyle;rounded=0;orthogonalLoop=1;jettySize=auto;html=1;" edge="1" parent="1" source="8pfgaCcAm6i4V-2ESHth-11">
          <mxGeometry relative="1" as="geometry">
            <mxPoint x="3560" y="-678" as="targetPoint" />
          </mxGeometry>
        </mxCell>
        <mxCell id="22xwDiC0nkHf0hDfVOVU-9" value="Comienza la partida" style="edgeLabel;html=1;align=center;verticalAlign=middle;resizable=0;points=[];" connectable="0" vertex="1" parent="22xwDiC0nkHf0hDfVOVU-6">
          <mxGeometry x="-0.185" y="3" relative="1" as="geometry">
            <mxPoint as="offset" />
          </mxGeometry>
        </mxCell>
        <mxCell id="22xwDiC0nkHf0hDfVOVU-111" style="rounded=0;orthogonalLoop=1;jettySize=auto;html=1;exitX=1;exitY=0.5;exitDx=0;exitDy=0;" edge="1" parent="1">
          <mxGeometry relative="1" as="geometry">
            <mxPoint x="3758" y="-1040.77" as="sourcePoint" />
            <mxPoint x="4059" y="-1040.77" as="targetPoint" />
          </mxGeometry>
        </mxCell>
        <mxCell id="22xwDiC0nkHf0hDfVOVU-112" value="Juego" style="edgeLabel;html=1;align=center;verticalAlign=middle;resizable=0;points=[];" connectable="0" vertex="1" parent="22xwDiC0nkHf0hDfVOVU-111">
          <mxGeometry x="-0.2902" y="4" relative="1" as="geometry">
            <mxPoint x="1" as="offset" />
          </mxGeometry>
        </mxCell>
        <mxCell id="22xwDiC0nkHf0hDfVOVU-113" style="rounded=0;orthogonalLoop=1;jettySize=auto;html=1;exitX=1;exitY=0.5;exitDx=0;exitDy=0;" edge="1" parent="1">
          <mxGeometry relative="1" as="geometry">
            <mxPoint x="3759" y="-1400" as="sourcePoint" />
            <mxPoint x="4060" y="-1400" as="targetPoint" />
          </mxGeometry>
        </mxCell>
        <mxCell id="22xwDiC0nkHf0hDfVOVU-114" value="Juego" style="edgeLabel;html=1;align=center;verticalAlign=middle;resizable=0;points=[];" connectable="0" vertex="1" parent="22xwDiC0nkHf0hDfVOVU-113">
          <mxGeometry x="-0.2902" y="4" relative="1" as="geometry">
            <mxPoint x="1" as="offset" />
          </mxGeometry>
        </mxCell>
        <mxCell id="22xwDiC0nkHf0hDfVOVU-115" value="RF - 7" style="whiteSpace=wrap;html=1;aspect=fixed;" vertex="1" parent="1">
          <mxGeometry x="3559" y="-1820" width="200" height="200" as="geometry" />
        </mxCell>
        <mxCell id="22xwDiC0nkHf0hDfVOVU-116" style="rounded=0;orthogonalLoop=1;jettySize=auto;html=1;exitX=1;exitY=0.5;exitDx=0;exitDy=0;" edge="1" parent="1">
          <mxGeometry relative="1" as="geometry">
            <mxPoint x="3759" y="-1720.77" as="sourcePoint" />
            <mxPoint x="4060" y="-1720.77" as="targetPoint" />
          </mxGeometry>
        </mxCell>
        <mxCell id="22xwDiC0nkHf0hDfVOVU-117" value="Juego" style="edgeLabel;html=1;align=center;verticalAlign=middle;resizable=0;points=[];" connectable="0" vertex="1" parent="22xwDiC0nkHf0hDfVOVU-116">
          <mxGeometry x="-0.2902" y="4" relative="1" as="geometry">
            <mxPoint x="1" as="offset" />
          </mxGeometry>
        </mxCell>
        <mxCell id="22xwDiC0nkHf0hDfVOVU-118" style="edgeStyle=orthogonalEdgeStyle;rounded=0;orthogonalLoop=1;jettySize=auto;html=1;exitX=0.5;exitY=1;exitDx=0;exitDy=0;entryX=0.5;entryY=0;entryDx=0;entryDy=0;" edge="1" parent="1" source="22xwDiC0nkHf0hDfVOVU-119">
          <mxGeometry relative="1" as="geometry">
            <mxPoint x="4568.889999999999" y="-2040.0000000000002" as="targetPoint" />
          </mxGeometry>
        </mxCell>
        <mxCell id="22xwDiC0nkHf0hDfVOVU-119" value="¿Cuantos jugadores?" style="ellipse;whiteSpace=wrap;html=1;rounded=0;shadow=1;strokeColor=#666666;strokeWidth=4;fontSize=30;align=center;fillColor=#f5f5f5;" vertex="1" parent="1">
          <mxGeometry x="4468.889999999999" y="-2320" width="200" height="200" as="geometry" />
        </mxCell>
        <mxCell id="22xwDiC0nkHf0hDfVOVU-120" value="2 Jugadores" style="text;html=1;strokeColor=none;fillColor=none;align=center;verticalAlign=middle;whiteSpace=wrap;rounded=0;shadow=1;labelBackgroundColor=none;fontSize=12;rotation=0;" vertex="1" parent="1">
          <mxGeometry x="4650" y="-1765" width="157.65" height="20" as="geometry" />
        </mxCell>
        <mxCell id="22xwDiC0nkHf0hDfVOVU-121" style="edgeStyle=orthogonalEdgeStyle;rounded=0;orthogonalLoop=1;jettySize=auto;html=1;exitX=0.5;exitY=1;exitDx=0;exitDy=0;entryX=0.5;entryY=0;entryDx=0;entryDy=0;" edge="1" parent="1" source="22xwDiC0nkHf0hDfVOVU-122" target="22xwDiC0nkHf0hDfVOVU-125">
          <mxGeometry relative="1" as="geometry" />
        </mxCell>
        <mxCell id="22xwDiC0nkHf0hDfVOVU-122" value="&lt;font size=&quot;1&quot;&gt;Roban 6 dinosaurios&lt;/font&gt;" style="whiteSpace=wrap;html=1;aspect=fixed;" vertex="1" parent="1">
          <mxGeometry x="4528.889999999999" y="-2040" width="80" height="80" as="geometry" />
        </mxCell>
        <mxCell id="22xwDiC0nkHf0hDfVOVU-123" style="rounded=0;orthogonalLoop=1;jettySize=auto;html=1;exitX=0.5;exitY=1;exitDx=0;exitDy=0;entryX=0.5;entryY=0;entryDx=0;entryDy=0;" edge="1" parent="1" source="22xwDiC0nkHf0hDfVOVU-125" target="22xwDiC0nkHf0hDfVOVU-127">
          <mxGeometry relative="1" as="geometry" />
        </mxCell>
        <mxCell id="22xwDiC0nkHf0hDfVOVU-124" style="rounded=0;orthogonalLoop=1;jettySize=auto;html=1;exitX=0.5;exitY=1;exitDx=0;exitDy=0;entryX=0.5;entryY=0;entryDx=0;entryDy=0;" edge="1" parent="1" source="22xwDiC0nkHf0hDfVOVU-125" target="22xwDiC0nkHf0hDfVOVU-142">
          <mxGeometry relative="1" as="geometry" />
        </mxCell>
        <mxCell id="22xwDiC0nkHf0hDfVOVU-125" value="&lt;span style=&quot;font-size: x-small;&quot;&gt;Lanzan el dado de restrincción&lt;/span&gt;" style="whiteSpace=wrap;html=1;aspect=fixed;" vertex="1" parent="1">
          <mxGeometry x="4528.889999999999" y="-1860" width="80" height="80" as="geometry" />
        </mxCell>
        <mxCell id="22xwDiC0nkHf0hDfVOVU-126" style="edgeStyle=orthogonalEdgeStyle;rounded=0;orthogonalLoop=1;jettySize=auto;html=1;entryX=0.5;entryY=0;entryDx=0;entryDy=0;" edge="1" parent="1" source="22xwDiC0nkHf0hDfVOVU-127" target="22xwDiC0nkHf0hDfVOVU-132">
          <mxGeometry relative="1" as="geometry" />
        </mxCell>
        <mxCell id="22xwDiC0nkHf0hDfVOVU-127" value="&lt;span style=&quot;font-size: x-small;&quot;&gt;Eligen 1 para colocar&lt;/span&gt;" style="whiteSpace=wrap;html=1;aspect=fixed;" vertex="1" parent="1">
          <mxGeometry x="4729.999999999999" y="-1695" width="80" height="80" as="geometry" />
        </mxCell>
        <mxCell id="22xwDiC0nkHf0hDfVOVU-128" style="rounded=0;orthogonalLoop=1;jettySize=auto;html=1;entryX=1;entryY=0;entryDx=0;entryDy=0;exitX=0.5;exitY=1;exitDx=0;exitDy=0;" edge="1" parent="1" source="22xwDiC0nkHf0hDfVOVU-129" target="22xwDiC0nkHf0hDfVOVU-135">
          <mxGeometry relative="1" as="geometry" />
        </mxCell>
        <mxCell id="22xwDiC0nkHf0hDfVOVU-129" value="&lt;span style=&quot;font-size: x-small;&quot;&gt;Colocan dinosaurio según la restricción&lt;/span&gt;" style="whiteSpace=wrap;html=1;aspect=fixed;" vertex="1" parent="1">
          <mxGeometry x="4729.999999999999" y="-1375" width="80" height="80" as="geometry" />
        </mxCell>
        <mxCell id="22xwDiC0nkHf0hDfVOVU-130" style="edgeStyle=orthogonalEdgeStyle;rounded=0;orthogonalLoop=1;jettySize=auto;html=1;entryX=0.5;entryY=0;entryDx=0;entryDy=0;" edge="1" parent="1" source="22xwDiC0nkHf0hDfVOVU-132" target="22xwDiC0nkHf0hDfVOVU-129">
          <mxGeometry relative="1" as="geometry" />
        </mxCell>
        <mxCell id="22xwDiC0nkHf0hDfVOVU-131" value="" style="edgeStyle=orthogonalEdgeStyle;rounded=0;orthogonalLoop=1;jettySize=auto;html=1;" edge="1" parent="1" source="22xwDiC0nkHf0hDfVOVU-132" target="22xwDiC0nkHf0hDfVOVU-140">
          <mxGeometry relative="1" as="geometry" />
        </mxCell>
        <mxCell id="22xwDiC0nkHf0hDfVOVU-132" value="&lt;span style=&quot;font-size: x-small;&quot;&gt;Eliminana 1&lt;/span&gt;&lt;br style=&quot;font-size: x-small;&quot;&gt;&lt;span style=&quot;font-size: x-small;&quot;&gt;(Descartan)&lt;/span&gt;" style="whiteSpace=wrap;html=1;aspect=fixed;" vertex="1" parent="1">
          <mxGeometry x="4729.999999999999" y="-1535" width="80" height="80" as="geometry" />
        </mxCell>
        <mxCell id="22xwDiC0nkHf0hDfVOVU-133" style="rounded=0;orthogonalLoop=1;jettySize=auto;html=1;exitX=0.5;exitY=1;exitDx=0;exitDy=0;entryX=0.5;entryY=0;entryDx=0;entryDy=0;" edge="1" parent="1" source="22xwDiC0nkHf0hDfVOVU-135" target="22xwDiC0nkHf0hDfVOVU-137">
          <mxGeometry relative="1" as="geometry" />
        </mxCell>
        <mxCell id="22xwDiC0nkHf0hDfVOVU-134" style="edgeStyle=orthogonalEdgeStyle;rounded=0;orthogonalLoop=1;jettySize=auto;html=1;entryX=0.5;entryY=1;entryDx=0;entryDy=0;" edge="1" parent="1" source="22xwDiC0nkHf0hDfVOVU-135" target="22xwDiC0nkHf0hDfVOVU-125">
          <mxGeometry relative="1" as="geometry" />
        </mxCell>
        <mxCell id="22xwDiC0nkHf0hDfVOVU-135" value="¿Quedan dinosaurios?" style="ellipse;whiteSpace=wrap;html=1;aspect=fixed;" vertex="1" parent="1">
          <mxGeometry x="4483.8899999999985" y="-1175" width="170" height="170" as="geometry" />
        </mxCell>
        <mxCell id="22xwDiC0nkHf0hDfVOVU-136" style="edgeStyle=orthogonalEdgeStyle;rounded=0;orthogonalLoop=1;jettySize=auto;html=1;exitX=0.5;exitY=1;exitDx=0;exitDy=0;entryX=0;entryY=0.5;entryDx=0;entryDy=0;curved=1;" edge="1" parent="1" source="22xwDiC0nkHf0hDfVOVU-137" target="22xwDiC0nkHf0hDfVOVU-149">
          <mxGeometry relative="1" as="geometry" />
        </mxCell>
        <mxCell id="22xwDiC0nkHf0hDfVOVU-137" value="&lt;font size=&quot;1&quot;&gt;Fin de la ronda&lt;/font&gt;" style="whiteSpace=wrap;html=1;aspect=fixed;" vertex="1" parent="1">
          <mxGeometry x="4528.889999999999" y="-895" width="80" height="80" as="geometry" />
        </mxCell>
        <mxCell id="22xwDiC0nkHf0hDfVOVU-138" value="No" style="text;html=1;strokeColor=none;fillColor=none;align=center;verticalAlign=middle;whiteSpace=wrap;rounded=0;shadow=1;labelBackgroundColor=none;fontSize=12;rotation=0;" vertex="1" parent="1">
          <mxGeometry x="4511.24" y="-955" width="157.65" height="20" as="geometry" />
        </mxCell>
        <mxCell id="22xwDiC0nkHf0hDfVOVU-139" value="SI" style="text;html=1;strokeColor=none;fillColor=none;align=center;verticalAlign=middle;whiteSpace=wrap;rounded=0;shadow=1;labelBackgroundColor=none;fontSize=12;rotation=0;" vertex="1" parent="1">
          <mxGeometry x="4511.24" y="-1505" width="157.65" height="20" as="geometry" />
        </mxCell>
        <mxCell id="22xwDiC0nkHf0hDfVOVU-140" value="&lt;font size=&quot;1&quot;&gt;Colocan el dinosaurio según la restricción&lt;/font&gt;" style="whiteSpace=wrap;html=1;aspect=fixed;" vertex="1" parent="1">
          <mxGeometry x="4729.999999999999" y="-1375" width="80" height="80" as="geometry" />
        </mxCell>
        <mxCell id="22xwDiC0nkHf0hDfVOVU-141" style="edgeStyle=orthogonalEdgeStyle;rounded=0;orthogonalLoop=1;jettySize=auto;html=1;entryX=0.5;entryY=0;entryDx=0;entryDy=0;" edge="1" parent="1" source="22xwDiC0nkHf0hDfVOVU-142" target="22xwDiC0nkHf0hDfVOVU-144">
          <mxGeometry relative="1" as="geometry" />
        </mxCell>
        <mxCell id="22xwDiC0nkHf0hDfVOVU-142" value="&lt;span style=&quot;font-size: x-small;&quot;&gt;Eligen 1 en secreto&lt;/span&gt;" style="whiteSpace=wrap;html=1;aspect=fixed;" vertex="1" parent="1">
          <mxGeometry x="4330" y="-1695" width="80" height="80" as="geometry" />
        </mxCell>
        <mxCell id="22xwDiC0nkHf0hDfVOVU-143" value="" style="edgeStyle=orthogonalEdgeStyle;rounded=0;orthogonalLoop=1;jettySize=auto;html=1;" edge="1" parent="1" source="22xwDiC0nkHf0hDfVOVU-144" target="22xwDiC0nkHf0hDfVOVU-146">
          <mxGeometry relative="1" as="geometry" />
        </mxCell>
        <mxCell id="22xwDiC0nkHf0hDfVOVU-144" value="&lt;span style=&quot;font-size: x-small;&quot;&gt;Revelan y colocan&lt;/span&gt;" style="whiteSpace=wrap;html=1;aspect=fixed;" vertex="1" parent="1">
          <mxGeometry x="4330" y="-1535" width="80" height="80" as="geometry" />
        </mxCell>
        <mxCell id="22xwDiC0nkHf0hDfVOVU-145" style="rounded=0;orthogonalLoop=1;jettySize=auto;html=1;exitX=0.5;exitY=1;exitDx=0;exitDy=0;entryX=0;entryY=0;entryDx=0;entryDy=0;" edge="1" parent="1" source="22xwDiC0nkHf0hDfVOVU-146" target="22xwDiC0nkHf0hDfVOVU-135">
          <mxGeometry relative="1" as="geometry" />
        </mxCell>
        <mxCell id="22xwDiC0nkHf0hDfVOVU-146" value="&lt;font size=&quot;1&quot;&gt;Pasan los dinosaurios restantes&lt;/font&gt;" style="whiteSpace=wrap;html=1;aspect=fixed;" vertex="1" parent="1">
          <mxGeometry x="4330" y="-1375" width="80" height="80" as="geometry" />
        </mxCell>
        <mxCell id="22xwDiC0nkHf0hDfVOVU-147" value="3-5 Jugadores" style="text;html=1;strokeColor=none;fillColor=none;align=center;verticalAlign=middle;whiteSpace=wrap;rounded=0;shadow=1;labelBackgroundColor=none;fontSize=12;rotation=0;" vertex="1" parent="1">
          <mxGeometry x="4330" y="-1765" width="157.65" height="20" as="geometry" />
        </mxCell>
        <mxCell id="22xwDiC0nkHf0hDfVOVU-148" style="edgeStyle=orthogonalEdgeStyle;rounded=0;orthogonalLoop=1;jettySize=auto;html=1;entryX=1;entryY=0.5;entryDx=0;entryDy=0;curved=1;" edge="1" parent="1" source="22xwDiC0nkHf0hDfVOVU-149" target="22xwDiC0nkHf0hDfVOVU-122">
          <mxGeometry relative="1" as="geometry">
            <Array as="points">
              <mxPoint x="5020" y="-695" />
              <mxPoint x="5020" y="-2000" />
            </Array>
          </mxGeometry>
        </mxCell>
        <mxCell id="22xwDiC0nkHf0hDfVOVU-149" value="¿Primera o sedunda ronda?" style="ellipse;whiteSpace=wrap;html=1;aspect=fixed;" vertex="1" parent="1">
          <mxGeometry x="4810" y="-780" width="170" height="170" as="geometry" />
        </mxCell>
        <mxCell id="22xwDiC0nkHf0hDfVOVU-150" value="&lt;font size=&quot;1&quot;&gt;Fin del juego y conteo de puntos&lt;/font&gt;" style="whiteSpace=wrap;html=1;aspect=fixed;" vertex="1" parent="1">
          <mxGeometry x="5170" y="-735" width="80" height="80" as="geometry" />
        </mxCell>
        <mxCell id="22xwDiC0nkHf0hDfVOVU-151" style="rounded=0;orthogonalLoop=1;jettySize=auto;html=1;entryX=0;entryY=0.5;entryDx=0;entryDy=0;" edge="1" parent="1" source="22xwDiC0nkHf0hDfVOVU-149" target="22xwDiC0nkHf0hDfVOVU-150">
          <mxGeometry relative="1" as="geometry" />
        </mxCell>
        <mxCell id="22xwDiC0nkHf0hDfVOVU-152" value="Segunda ronda" style="text;html=1;strokeColor=none;fillColor=none;align=center;verticalAlign=middle;whiteSpace=wrap;rounded=0;shadow=1;labelBackgroundColor=none;fontSize=12;rotation=0;" vertex="1" parent="1">
          <mxGeometry x="5000" y="-714" width="157.65" height="20" as="geometry" />
        </mxCell>
        <mxCell id="22xwDiC0nkHf0hDfVOVU-153" value="Primera ronda" style="text;html=1;strokeColor=none;fillColor=none;align=center;verticalAlign=middle;whiteSpace=wrap;rounded=0;shadow=1;labelBackgroundColor=none;fontSize=12;rotation=0;" vertex="1" parent="1">
          <mxGeometry x="5000" y="-1405" width="157.65" height="20" as="geometry" />
        </mxCell>
      </root>
    </mxGraphModel>
  </diagram>
</mxfile>
